<svg id="Layer_1" data-name="Layer 1" xmlns="http://www.w3.org/2000/svg" viewBox="0 0 171.26 198"><defs><style>.cls-1{fill:#f60;}</style></defs><path class="cls-1" d="M97.51,276.27v-3.84c0-1.28-.24-2.3-.24-3.6a18.11,18.11,0,0,0-.24-2,7.85,7.85,0,0,1,0-.84c0-.45-.19-.62-.24-1s0-.65,0-1-.19-.6-.24-1c-.1-.64-.16-1.23-.24-1.8-.37-2.56-.86-5-1.44-7.44-.29-1.2-.57-2.54-1-3.72-.23-.67-.51-1.37-.72-2a6.7,6.7,0,0,1-.48-1.68c-.4-.4-.27-1.13-.48-1.56a10.75,10.75,0,0,1-.72-1.44c-.17-.5-.32-.95-.48-1.44-.09-.26-.16-.46-.24-.72,0,0-.22-.68-.24-.72-1-1.93-1.65-4-2.76-5.88-.55-.91-.86-2-1.32-3s-1-1.91-1.44-2.88c-.24-.52-.71-.93-1-1.44s-.46-1.06-.72-1.56a9.16,9.16,0,0,1-1.44-2.88h-.24c-.83-1.35-1.49-2.75-2.28-4.08s-1.72-2.61-2.52-4c-1.64-2.73-3.52-5.34-5.28-8h-.24a16,16,0,0,0-2.4-3.24c-.33-.39-.62-1-1-1.44-.51-.62-.95-1.06-1.44-1.68-1.68-2.12-3.56-4.2-5.28-6.36a79.51,79.51,0,0,0-6-6.36l-3.12-3.12c-.55-.55-1.09-1.19-1.68-1.68A4.91,4.91,0,0,1,49,181.59h-.48c0,.55-.68,1.11-1,1.56s-.83,1.12-1.2,1.68c-.7,1-1.47,2.07-2.16,3.12-1.4,2.09-2.88,4.21-4.32,6.24s-2.9,4.23-4.56,6.24c-.79.94-1.38,2.26-2.16,3.24A21.12,21.12,0,0,0,31,206.79h-.24c-.53-1-1.62-1.55-2.28-2.4s-1.51-1.65-2.28-2.52c-1.4-1.57-2.82-3.29-4.32-4.8-2.77-2.77-5.15-5.87-7.92-8.64-1.34-1.34-2.61-2.92-3.84-4.32s-2.78-2.76-4.08-4.32c-1.18-1.41-2.54-3-3.84-4.32s-2.81-2.78-4.08-4.32-2.5-3-3.84-4.32c-.74-.74-1.22-1.46-1.92-2.16a10.89,10.89,0,0,1-1.92-2h-1a12.65,12.65,0,0,1-2,2.4c-.86.86-1.45,1.68-2.28,2.52-1.52,1.51-2.83,3.3-4.32,4.8-2.79,2.78-5.15,5.86-7.92,8.64-1.36,1.35-2.47,2.94-3.84,4.32a25,25,0,0,0-1.92,2.16c-.61.74-1.29,1.38-1.92,2.16-2.35,2.85-4.63,5.79-7,8.64-1.11,1.35-2,2.91-3.12,4.32a24.56,24.56,0,0,0-1.44,2.16,15,15,0,0,0-1.2,2h-.24c.08.62-.9,1.53-1.2,2-.42.69-.91,1.35-1.32,2-.82,1.35-1.72,2.62-2.52,4s-1.78,2.71-2.64,4.08-1.55,2.64-2.4,4H-58a9.12,9.12,0,0,1-1.44,2.76c-.55.91-1,1.87-1.56,2.76-1.05,1.74-1.88,3.59-2.76,5.4a87.8,87.8,0,0,0-4.56,11c-.56,1.68-1.13,3.36-1.68,5a14.57,14.57,0,0,0-.48,2.4c-.05.31-.43.88-.48,1.2s-.19.8-.24,1.2c-.26,1.7-.72,3.33-1,5s-.5,3.2-.72,4.8c-.07.47.07,1,0,1.44,0,.13-.22.28-.24.48a4.33,4.33,0,0,0,0,.72v1.2a7.23,7.23,0,0,1-.24,1.08c-.22,1.61.22,3.31,0,4.92a35.65,35.65,0,0,0-.24,4.92,16.31,16.31,0,0,0,0,2.52c0,.16.2.35.24.6s0,.4,0,.6a8,8,0,0,0,0,1.2,8.15,8.15,0,0,1,.24,1.44,7.79,7.79,0,0,0,0,1.08c0,.45.18.72.24,1.2s-.06.73,0,1.08a.39.39,0,0,1,.24.48V290c0,.15,0,.32,0,.48,0,0,.2.62.24.72a3.84,3.84,0,0,1,0,.48s.2.47.24.6,0,.41,0,.6.43.89.48,1.2a18.7,18.7,0,0,0,.48,2.52c.21.75.47,1.53.72,2.28s.66,1.76,1,2.64a9.44,9.44,0,0,0,.24,1.2c.18.37.14.18.24.48a6.07,6.07,0,0,0,.24.72c.78,1.58,1.38,3.21,2.16,4.8.42.86.79,1.76,1.2,2.64s.8,1.58,1.2,2.4a39.48,39.48,0,0,0,2.64,4.8,25.89,25.89,0,0,1,1.44,2.64c.34.69,1.51,1.45,1.44,2.28h.24v.24h.24v.48H-58v.24h.24v.24c.27.5.68.87,1,1.32a14.41,14.41,0,0,0,1,1.44c.75.92,1.4,1.78,2.16,2.64,1.57,1.77,3,3.53,4.8,5.28a71.19,71.19,0,0,0,9.6,8.64c3.14,2.16,6.14,4.63,9.6,6.36,3.16,1.58,6.27,3.23,9.6,4.52,3.14,1.21,6.44,2,9.6,3.16h1v.24h1.2v.24h1v.24h1.2V359H-5v.24h1.44v.24h1.44v.24H-.41v.24H1.75v.24h2.4v.24H5.59v.24H16.87v-.24h1.44v-.24h3.12v-.24h1.92v-.24H25v-.24h1.68v-.24h1.44V359h1.2v-.24h1.2v-.24h1.2v-.24h1V358h1.2c3.6-1.36,7.43-2.08,11-3.48A70.72,70.72,0,0,0,54.79,350c1.62-.95,3.26-1.93,4.8-3s3.16-2.39,4.8-3.48a36.28,36.28,0,0,0,5-4.32l4.8-4.8c1.56-1.57,3-3.14,4.32-4.8l2.16-2.64c.22-.28.49-.93.72-1.2s.8-.57.72-1.08h.24v-.24h.24v-.48h.24v-.24h.24v-.24l.24-.48h.24c.41-.73.74-1.36,1.2-2s1-1.4,1.44-2.16c.74-1.35,1.32-2.91,2.16-4.2,1.66-2.57,2.61-5.63,3.84-8.4.51-1.17.79-2.52,1.2-3.72s.89-2.49,1.2-3.72.51-2.44.72-3.72c0,0,.21-.51.24-.6s0-.33,0-.48a5.78,5.78,0,0,1,.24-.84,12.91,12.91,0,0,0,.24-1.92c0-.27.19-.61.24-1s.18-.6.24-1c.09-.63.17-1.24.24-1.8.14-1.26,0-2.44.24-3.72a5.17,5.17,0,0,0,.24-1v-1a10.33,10.33,0,0,1,.24-1.8A25.66,25.66,0,0,0,97.51,276.27ZM26,323l-1,.48H23.59v.24H22.15v.24H20.47v.24H18.55v.24H15.19v.24h-6v-.24H6.07v-.24H3.91v-.24H2.23v-.24H.79v-.24H-.41c-2.11-.79-4.37-1.12-6.48-1.88s-4.16-1.7-6.24-2.56a26.78,26.78,0,0,1-3.12-1.68,33,33,0,0,1-3.12-1.92,56.82,56.82,0,0,1-6.24-5l-1-1-.48-.24v-.24l-1.2-1.2a33,33,0,0,1-2.16-2.64A31.78,31.78,0,0,1-32.57,302a21.74,21.74,0,0,1-1.68-2.64c-.88-1.81-1.51-3.72-2.4-5.52a12,12,0,0,1-.48-1.68,5.67,5.67,0,0,1-.24-1.2l-.24-.72-.24-.72a5.67,5.67,0,0,1-.24-1.2c-.15-1-.57-2.1-.72-3.12s-.11-1.7-.24-2.64a7.72,7.72,0,0,1-.24-1.44,9.89,9.89,0,0,0,0-1.44,7.55,7.55,0,0,1-.24-.72,4,4,0,0,1,0-.6V277a21.29,21.29,0,0,1,0-2.88c.12-.88.11-1.81.24-2.76s.34-2.05.48-3a14.3,14.3,0,0,1,.48-2.64c.6-1.81.84-3.72,1.44-5.52s1.39-3.78,2.16-5.64a63.62,63.62,0,0,1,6-11.16,71.75,71.75,0,0,1,8.88-11.28,72.92,72.92,0,0,1,5.52-5c1.82-1.5,4-2.65,5.76-4.2h.24a27.91,27.91,0,0,0,2.4,3c.74,1,1.57,1.88,2.4,2.88,1.56,1.88,3.13,3.89,4.68,5.88s3.19,3.88,4.68,5.88c.76,1,1.59,2,2.4,3a16.41,16.41,0,0,1,2.16,2.88h.24a18.87,18.87,0,0,0,2.16,2.76c.73.9,1.44,2,2.16,2.88,1.5,1.91,3,3.65,4.56,5.52s3,3.76,4.44,5.64c.74,1,1.5,1.81,2.28,2.76a12,12,0,0,0,2.4,2.76h.24A15.36,15.36,0,0,0,31.75,266a38.53,38.53,0,0,1,2.64-2.88c.93-.94,1.6-1.84,2.52-2.76s2-1.77,2.76-2.76c1.54-1.9,3.66-3.71,5.16-5.64a30,30,0,0,1,2.76-2.76,14.29,14.29,0,0,0,2.4-2.76h.72a16.14,16.14,0,0,1,2.28,2.4,23,23,0,0,1,2,2.28c.58.75,1.16,1.62,1.68,2.4a12,12,0,0,1,1,1.2c.2.41.5.77.72,1.2a45.39,45.39,0,0,1,3.84,9.48c.64,2.75.79,5.65,1.2,8.52a32.7,32.7,0,0,1,0,4.2,15.13,15.13,0,0,1-.12,2.16c-.1.61,0,1.37-.12,2-.22,1.42-.51,2.89-.72,4.32a23.12,23.12,0,0,1-1.08,4.2c-.27.71-.46,1.44-.72,2.16s-.62,1.35-.84,2a45,45,0,0,1-1.92,4.32c-.34.74-.85,1.43-1.2,2.16a11.44,11.44,0,0,1-.72,1c-.16.24-.32.72-.48,1-1.07,1.51-2.15,2.85-3.36,4.32a38.19,38.19,0,0,1-3.72,4.2c-1.34,1.19-2.78,2.28-4.2,3.36a41.15,41.15,0,0,1-8.52,4.8c-2.78,1.19-5.71,1.82-8.52,2.88Z" transform="translate(73.67 -162.63)"/></svg>